<svg height="16" viewBox="0 0 16 16" width="16" xmlns="http://www.w3.org/2000/svg"><path d="m1.63636364 13.0909091v-2.5454546l2.76283735.0003423c-.140779-.398179-.21738281-.82667836-.21738281-1.27306953 0-2.10872359 1.70945823-3.81818182 3.81818182-3.81818182 2.1087236 0 3.8181818 1.70945823 3.8181818 3.81818182 0 .44639117-.0766038.87489053-.2173828 1.27306953l2.7628374-.0003423v2.5454546zm.63636363-6.36363637c.70290787 0 1.27272728.56981941 1.27272728 1.27272727s-.56981941 1.27272727-1.27272728 1.27272727c-.70290786 0-1.27272727-.56981941-1.27272727-1.27272727s.56981941-1.27272727 1.27272727-1.27272727zm11.45454543 0c.7029079 0 1.2727273.56981941 1.2727273 1.27272727s-.5698194 1.27272727-1.2727273 1.27272727c-.7029078 0-1.2727272-.56981941-1.2727272-1.27272727s.5698194-1.27272727 1.2727272-1.27272727zm-8.27272725-3.81818182c.70290787 0 1.27272728.56981941 1.27272728 1.27272727 0 .70290787-.56981941 1.27272727-1.27272728 1.27272727-.70290786 0-1.27272727-.5698194-1.27272727-1.27272727 0-.70290786.56981941-1.27272727 1.27272727-1.27272727zm5.09090905 0c.7029079 0 1.2727273.56981941 1.2727273 1.27272727 0 .70290787-.5698194 1.27272727-1.2727273 1.27272727-.70290782 0-1.27272723-.5698194-1.27272723-1.27272727 0-.70290786.56981941-1.27272727 1.27272723-1.27272727z"  fill-rule="evenodd"/></svg>
